# xmcd
#
# Track frame offsets: 
#        150
#        8394
#        15316
#        25800
#        37974
#        48174
#        63471
#        77173
#        90847
#        104594
#        118761
#        133030
#        146180
#        158005
#        172815
#        184139
#        198456
#        213669
#
# Disc length: 3028 seconds
#
# Revision: 2
# Processed by: cddbd v1.5.2PL0 Copyright (c) Steve Scherf et al.
# Submitted via: ExactAudioCopy v0.99pb4
#
DISCID=e40bd212
DTITLE=Frank Sinatra - 10 CD Set [CD 8)
DYEAR=2005
DGENRE=Jazz
TTITLE0=Somebody Loves Me
TTITLE1=Exactly Like You
TTITLE2=Personality
TTITLE3=Tea For Two
TTITLE4=Make Believe
TTITLE5=The Night We Called It A Day
TTITLE6=Where Is My Bess
TTITLE7=You'll Never Know
TTITLE8=Dream When You're Feeling Blue
TTITLE9=Put Your Dreams Away
TTITLE10=Day By Day
TTITLE11=Oh! What Seemed To Be
TTITLE12=Five Minutes More
TTITLE13=The Things We Did Last Summer
TTITLE14=The Coffee Song
TTITLE15=Time After Time
TTITLE16=Mam'selle
TTITLE17=Fools Rush In
EXTD=YEAR: 2005
EXTT0=
EXTT1=
EXTT2=
EXTT3=
EXTT4=
EXTT5=
EXTT6=
EXTT7=
EXTT8=
EXTT9=
EXTT10=
EXTT11=
EXTT12=
EXTT13=
EXTT14=
EXTT15=
EXTT16=
EXTT17=
PLAYORDER=
